<svg id="圖層_1" data-name="圖層 1" xmlns="http://www.w3.org/2000/svg" viewBox="0 0 300.42 44.39"><defs><style>.cls-1,.cls-2,.cls-3,.cls-5{fill:#fff;}.cls-2{fill-rule:evenodd;}.cls-3{font-size:25.99px;}.cls-3,.cls-5{font-family:DFHeiStd-W7-B5pc-H, DFHei Std;}.cls-4{letter-spacing:0.1em;}.cls-5{font-size:9.2px;}</style></defs><title>footer_icon</title><path class="cls-1" d="M59.84,13.8C58.89,4.46,49.63-.86,39.53.11,19.83,2,8.18,19.06,0,42.7H12.06C19.83,16.11,33.78,4.28,45.28,4.05,53.49,3.86,58,8.71,59.84,13.8"/><path class="cls-1" d="M18.83,29.1C16,38.82,23.38,43.53,32.55,42.94c10.78-.72,19.68-5.62,24.64-15.46H44.11c-8.64,16-26.3,14.49-25.28,1.62"/><path class="cls-2" d="M37.93,21.7a26.55,26.55,0,0,1,3.09,0Z"/><path class="cls-2" d="M35.45,23.9a5.91,5.91,0,0,0,1,0c-.23,0-1,.09-1,0"/><path class="cls-2" d="M28,23.94H29a3.6,3.6,0,0,1-1.09,0"/><path class="cls-2" d="M42.82,23.94h1a2.69,2.69,0,0,1-1,0"/><path class="cls-2" d="M45.9,23.94h.92a2.37,2.37,0,0,1-.92,0"/><path class="cls-2" d="M49.91,23.94a2.73,2.73,0,0,1-.95,0Z"/><path class="cls-2" d="M61.45,23.94h1.08a3.53,3.53,0,0,1-1.08,0"/><path class="cls-2" d="M25.41,20.48s0-.07,0-.07c.4-.22,1.47.07,2,0a10.36,10.36,0,0,0-2,.07"/><path class="cls-2" d="M31.75,20.34s0-.07,0-.07h3.8c-1.2.1-2.64,0-3.84.07"/><path class="cls-2" d="M41.12,23.53c.08.07,0,.28,0,.41.33-.1,1.11.24,1-.28.08,0,0,.22,0,.31H41.15c-.06-.09,0-.3,0-.44"/><path class="cls-2" d="M42.82,23.94c.81-2.73,1.6-5.48,2.41-8.21h1.22c.11,2.22.25,4.43.33,6.68,1.49-2.18,2.85-4.49,4.32-6.68h1.22c-.82,2.72-1.61,5.47-2.41,8.21H49c.55-2,1.16-4,1.73-6-1.28,1.87-2.58,4-3.87,6H45.9c-.08-2-.21-4-.34-6q-.9,3-1.76,6Z"/><path class="cls-2" d="M58.9,20.48s0-.07,0-.07c.41-.22,1.48.07,2,0a10.43,10.43,0,0,0-2,.07"/><path class="cls-2" d="M26.46,16.88s0-.07,0-.07c.47-.26,1.65.09,2.21,0a15.7,15.7,0,0,0-2.21.07"/><path class="cls-2" d="M23.44,23.94c.76-2.77,1.6-5.46,2.37-8.21,1.93.12,4.61-.52,4.86,1.21a3.14,3.14,0,0,1-2.21,3.27c.19,1.24.41,2.46.58,3.73H28c-.2-1.17-.38-2.36-.58-3.53-.49.07-1.56-.22-2,0,0,0,0,.06,0,.07-.32,1.15-.69,2.25-1,3.42a5.14,5.14,0,0,1-1,0M28,19.29a1.7,1.7,0,0,0,1.6-1.93.94.94,0,0,0-.95-.55c-.56.09-1.74-.26-2.21,0,0,0,0,.06,0,.07-.22.8-.48,1.56-.68,2.37,0,0,0,0,0,0,.44.28,1.69,0,2.27,0"/><path class="cls-2" d="M60,16.88s0-.07,0-.07c.47-.26,1.65.09,2.21,0a15.7,15.7,0,0,0-2.21.07"/><path class="cls-2" d="M56.93,23.94c.77-2.77,1.61-5.45,2.38-8.21,1.91.12,4.57-.51,4.85,1.18A3.12,3.12,0,0,1,62,20.21c.19,1.24.41,2.46.58,3.73H61.45c-.21-1.17-.39-2.36-.58-3.53-.49.07-1.56-.22-2,0,0,0,0,.06,0,.07-.32,1.14-.68,2.26-1,3.42a5.14,5.14,0,0,1-1,0m5.23-7.13c-.56.09-1.74-.26-2.21,0,0,0,0,.06,0,.07-.22.8-.47,1.56-.67,2.37,0,0,0,0,0,0,.44.28,1.7,0,2.27,0a1.7,1.7,0,0,0,1.6-1.93.94.94,0,0,0-1-.55"/><path class="cls-2" d="M29.75,23.87c.79-2.72,1.59-5.42,2.38-8.14h5.19c-.11.34-.21.69-.31,1-1.4,0-2.9,0-4.24,0-.21.8-.47,1.57-.68,2.38,1.2.08,2.55,0,3.8,0-.09.36-.2.71-.3,1.05h-3.8s0,0,0,.07c-.26.82-.49,1.68-.74,2.51,1.33.08,2.81,0,4.2,0-.09.35-.2.7-.3,1.05H29.82c-.06,0-.07,0-.07-.07"/><path class="cls-2" d="M50.89,23.87c.79-2.72,1.59-5.42,2.38-8.14h5.18c-.1.34-.2.69-.29,1-1.41,0-2.9,0-4.25,0-.21.8-.47,1.56-.68,2.38,1.2.08,2.55,0,3.8,0-.08.37-.2.7-.3,1.05-1.27,0-2.63,0-3.84,0-.23.82-.49,1.63-.71,2.48,0,0,0,0,0,.06,1.33.08,2.81,0,4.2,0q-.14.52-.3,1.05H51c-.05,0-.07,0-.07-.07"/><path class="cls-2" d="M40.78,17.79c.08.05,0,.24,0,.35-.08-.05,0-.24,0-.35"/><path class="cls-2" d="M40.81,18.4c.08.05,0,.24,0,.35-.07-.05,0-.24,0-.35"/><path class="cls-2" d="M40.84,19c.09,0,0,.24,0,.35-.08-.05,0-.24,0-.35"/><path class="cls-2" d="M32.09,19.19h2a17.77,17.77,0,0,1,1.83,0c-1.26,0-2.6.05-3.8,0"/><path class="cls-2" d="M53.23,19.19c1.19,0,2.72-.05,3.8,0-1.25,0-2.6.05-3.8,0"/><path class="cls-2" d="M34.91,23.94c-1.31.06-3.1,0-4.65,0-.25,0-.59.06-.51-.1,0,.05,0,.07.07.07Z"/><path class="cls-2" d="M56.05,23.94c-1.3.06-3.1,0-4.65,0-.24,0-.59.06-.51-.1,0,.05,0,.07.07.07Z"/><path class="cls-2" d="M32.77,16.81c1.34-.08,2.84,0,4.24,0-1.34.08-2.84,0-4.24,0"/><path class="cls-2" d="M53.91,16.81c1.35-.08,2.84,0,4.25,0-1.35.08-2.85,0-4.25,0"/><path class="cls-2" d="M31,22.85h2.17c.64,0,1.56,0,2,0-1.39,0-2.87,0-4.2,0"/><path class="cls-2" d="M52.18,22.79c1,.17,3.12,0,4.17.1-1.39,0-2.87,0-4.2,0,0,0,0-.06,0-.06"/><path class="cls-2" d="M52.9,20.31c1.2-.08,2.56,0,3.83,0-1.21.08-2.57,0-3.83,0"/><path class="cls-2" d="M40.92,20.27c.07.05,0,.24,0,.34H39.79a4.39,4.39,0,0,1-1.15,0s0-.08.07-.07c.67.09,1.48,0,2.21,0Z"/><path class="cls-2" d="M24.42,23.9c-.16.14-.88.07-1,0a5.14,5.14,0,0,0,1,0"/><path class="cls-2" d="M57.92,23.9a2,2,0,0,1-1,0,5.29,5.29,0,0,0,1,0"/><path class="cls-2" d="M25.78,19.25c.68.08,1.5,0,2.24,0-.58-.07-1.84.24-2.28,0,0,0,0,0,0,0"/><path class="cls-2" d="M59.28,19.25c.67.08,1.5,0,2.23,0-.57-.07-1.83.24-2.27,0,0,0,0,0,0,0"/><path class="cls-2" d="M35.45,23.9c1.78-2.7,3.51-5.47,5.29-8.17h1c.16,2.63.31,5.29.47,7.93.09.52-.69.18-1,.28,0-.13.05-.34,0-.41,0-.64,0-1.24-.1-1.83a26.55,26.55,0,0,0-3.09,0c-.48.74-1,1.47-1.43,2.24a5.91,5.91,0,0,1-1,0m5.33-6.11v-.43c-.74,1-1.4,2.11-2.07,3.19,0,0-.07.06-.07.06a4.39,4.39,0,0,0,1.15,0H41c0-.1,0-.29,0-.34a8.84,8.84,0,0,0,0-.91c0-.11,0-.3,0-.35v-.26c0-.11,0-.3,0-.35v-.26c0-.11,0-.3,0-.35"/><text class="cls-3" transform="translate(74.26 23.53)"><tspan class="cls-4">峻盟國際整合行</tspan><tspan x="200.16" y="0">銷</tspan></text><text class="cls-5" transform="translate(71.16 43.01)"><tspan xml:space="preserve"> Copyright © 2019 DREAMER Internet Corporation Limited</tspan></text></svg>